<mxfile host="app.diagrams.net" modified="2022-10-05T00:19:51.897Z" agent="5.0 (Macintosh; Intel Mac OS X 10_15_7) AppleWebKit/537.36 (KHTML, like Gecko) Chrome/105.0.0.0 Safari/537.36" etag="aWwhQB714uJMdkXUx0S9" version="20.4.0" type="github">
  <diagram id="C5RBs43oDa-KdzZeNtuy" name="Page-1">
    <mxGraphModel dx="2698" dy="1163" grid="0" gridSize="10" guides="1" tooltips="1" connect="1" arrows="1" fold="1" page="0" pageScale="0.75" pageWidth="413" pageHeight="583" background="#ffffff" math="0" shadow="0">
      <root>
        <mxCell id="WIyWlLk6GJQsqaUBKTNV-0" />
        <mxCell id="WIyWlLk6GJQsqaUBKTNV-1" parent="WIyWlLk6GJQsqaUBKTNV-0" />
        <mxCell id="YET5aG1iahYQeoToUf5U-1" value="INotesBook" style="swimlane;fontStyle=2;align=center;verticalAlign=top;childLayout=stackLayout;horizontal=1;startSize=26;horizontalStack=0;resizeParent=1;resizeLast=0;collapsible=1;marginBottom=0;rounded=0;shadow=0;strokeWidth=1;fillColor=#d5e8d4;strokeColor=#82b366;" vertex="1" parent="WIyWlLk6GJQsqaUBKTNV-1">
          <mxGeometry x="720" y="460" width="160" height="210" as="geometry">
            <mxRectangle x="970" y="390" width="160" height="26" as="alternateBounds" />
          </mxGeometry>
        </mxCell>
        <mxCell id="YET5aG1iahYQeoToUf5U-4" value="" style="line;html=1;strokeWidth=1;align=left;verticalAlign=middle;spacingTop=-1;spacingLeft=3;spacingRight=3;rotatable=0;labelPosition=right;points=[];portConstraint=eastwest;" vertex="1" parent="YET5aG1iahYQeoToUf5U-1">
          <mxGeometry y="26" width="160" height="8" as="geometry" />
        </mxCell>
        <mxCell id="YET5aG1iahYQeoToUf5U-6" value="+ change_book()&#xa;&#xa;+ read_file()&#xa;&#xa;+ save_in_file()" style="text;align=left;verticalAlign=top;spacingLeft=4;spacingRight=4;overflow=hidden;rotatable=0;points=[[0,0.5],[1,0.5]];portConstraint=eastwest;fontStyle=2" vertex="1" parent="YET5aG1iahYQeoToUf5U-1">
          <mxGeometry y="34" width="160" height="80" as="geometry" />
        </mxCell>
        <mxCell id="YET5aG1iahYQeoToUf5U-13" value="INotesCommands" style="swimlane;fontStyle=2;align=center;verticalAlign=top;childLayout=stackLayout;horizontal=1;startSize=26;horizontalStack=0;resizeParent=1;resizeLast=0;collapsible=1;marginBottom=0;rounded=0;shadow=0;strokeWidth=1;fillColor=#d5e8d4;strokeColor=#82b366;" vertex="1" parent="WIyWlLk6GJQsqaUBKTNV-1">
          <mxGeometry x="720" y="740" width="160" height="200" as="geometry">
            <mxRectangle x="970" y="390" width="160" height="26" as="alternateBounds" />
          </mxGeometry>
        </mxCell>
        <mxCell id="YET5aG1iahYQeoToUf5U-15" value="" style="line;html=1;strokeWidth=1;align=left;verticalAlign=middle;spacingTop=-1;spacingLeft=3;spacingRight=3;rotatable=0;labelPosition=right;points=[];portConstraint=eastwest;" vertex="1" parent="YET5aG1iahYQeoToUf5U-13">
          <mxGeometry y="26" width="160" height="8" as="geometry" />
        </mxCell>
        <mxCell id="YET5aG1iahYQeoToUf5U-16" value="+ add_note()&#xa;&#xa;+ delete_note()&#xa;&#xa;+ edit_note()&#xa;&#xa;+ get_note()&#xa;&#xa;+ edit_tags()&#xa;&#xa;+ get_tags()" style="text;align=left;verticalAlign=top;spacingLeft=4;spacingRight=4;overflow=hidden;rotatable=0;points=[[0,0.5],[1,0.5]];portConstraint=eastwest;fontStyle=2" vertex="1" parent="YET5aG1iahYQeoToUf5U-13">
          <mxGeometry y="34" width="160" height="166" as="geometry" />
        </mxCell>
        <mxCell id="YET5aG1iahYQeoToUf5U-17" value="NotesBook" style="swimlane;fontStyle=0;align=center;verticalAlign=top;childLayout=stackLayout;horizontal=1;startSize=26;horizontalStack=0;resizeParent=1;resizeLast=0;collapsible=1;marginBottom=0;rounded=0;shadow=0;strokeWidth=1;fillColor=#60a917;fontColor=#ffffff;strokeColor=#2D7600;" vertex="1" parent="WIyWlLk6GJQsqaUBKTNV-1">
          <mxGeometry x="420" y="460" width="240" height="210" as="geometry">
            <mxRectangle x="970" y="390" width="160" height="26" as="alternateBounds" />
          </mxGeometry>
        </mxCell>
        <mxCell id="YET5aG1iahYQeoToUf5U-19" value="" style="line;html=1;strokeWidth=1;align=left;verticalAlign=middle;spacingTop=-1;spacingLeft=3;spacingRight=3;rotatable=0;labelPosition=right;points=[];portConstraint=eastwest;" vertex="1" parent="YET5aG1iahYQeoToUf5U-17">
          <mxGeometry y="26" width="240" height="8" as="geometry" />
        </mxCell>
        <mxCell id="YET5aG1iahYQeoToUf5U-20" value="- __init__()&#xa;&#xa;- __path_file()&#xa;&#xa;- __restore()&#xa;&#xa;+ change_book(book_name)&#xa;&#xa;+ read_file()&#xa;&#xa;+ save_in_file()" style="text;align=left;verticalAlign=top;spacingLeft=4;spacingRight=4;overflow=hidden;rotatable=0;points=[[0,0.5],[1,0.5]];portConstraint=eastwest;fontStyle=0" vertex="1" parent="YET5aG1iahYQeoToUf5U-17">
          <mxGeometry y="34" width="240" height="166" as="geometry" />
        </mxCell>
        <mxCell id="YET5aG1iahYQeoToUf5U-23" value="NotesCommands" style="swimlane;fontStyle=0;align=center;verticalAlign=top;childLayout=stackLayout;horizontal=1;startSize=26;horizontalStack=0;resizeParent=1;resizeLast=0;collapsible=1;marginBottom=0;rounded=0;shadow=0;strokeWidth=1;fillColor=#60a917;fontColor=#ffffff;strokeColor=#2D7600;" vertex="1" parent="WIyWlLk6GJQsqaUBKTNV-1">
          <mxGeometry x="420" y="180" width="240" height="210" as="geometry">
            <mxRectangle x="970" y="390" width="160" height="26" as="alternateBounds" />
          </mxGeometry>
        </mxCell>
        <mxCell id="YET5aG1iahYQeoToUf5U-25" value="" style="line;html=1;strokeWidth=1;align=left;verticalAlign=middle;spacingTop=-1;spacingLeft=3;spacingRight=3;rotatable=0;labelPosition=right;points=[];portConstraint=eastwest;" vertex="1" parent="YET5aG1iahYQeoToUf5U-23">
          <mxGeometry y="26" width="240" height="8" as="geometry" />
        </mxCell>
        <mxCell id="YET5aG1iahYQeoToUf5U-26" value="+ add_note(name, tags, note, notesbook)&#xa;&#xa;+ delete_note(name, notesbook)&#xa;&#xa;+ edit_note(name, note, notesbook)&#xa;&#xa;+ get_note(name,  notesbook)&#xa;&#xa;+ edit_tags(name, tags, notesbook)&#xa;&#xa;+ get_tags(name,  notesbook)" style="text;align=left;verticalAlign=top;spacingLeft=4;spacingRight=4;overflow=hidden;rotatable=0;points=[[0,0.5],[1,0.5]];portConstraint=eastwest;fontStyle=0" vertex="1" parent="YET5aG1iahYQeoToUf5U-23">
          <mxGeometry y="34" width="240" height="176" as="geometry" />
        </mxCell>
        <mxCell id="YET5aG1iahYQeoToUf5U-28" value="IShowNotesCommands" style="swimlane;fontStyle=2;align=center;verticalAlign=top;childLayout=stackLayout;horizontal=1;startSize=26;horizontalStack=0;resizeParent=1;resizeLast=0;collapsible=1;marginBottom=0;rounded=0;shadow=0;strokeWidth=1;fillColor=#d5e8d4;strokeColor=#82b366;" vertex="1" parent="WIyWlLk6GJQsqaUBKTNV-1">
          <mxGeometry x="720" y="180" width="160" height="210" as="geometry">
            <mxRectangle x="970" y="390" width="160" height="26" as="alternateBounds" />
          </mxGeometry>
        </mxCell>
        <mxCell id="YET5aG1iahYQeoToUf5U-29" value="" style="line;html=1;strokeWidth=1;align=left;verticalAlign=middle;spacingTop=-1;spacingLeft=3;spacingRight=3;rotatable=0;labelPosition=right;points=[];portConstraint=eastwest;" vertex="1" parent="YET5aG1iahYQeoToUf5U-28">
          <mxGeometry y="26" width="160" height="8" as="geometry" />
        </mxCell>
        <mxCell id="YET5aG1iahYQeoToUf5U-30" value="+ show_some_note()&#xa;&#xa;+ show_all_notes()&#xa;&#xa;+ find_note()&#xa;&#xa;+ find_tag()&#xa;&#xa;+ sort_tag()" style="text;align=left;verticalAlign=top;spacingLeft=4;spacingRight=4;overflow=hidden;rotatable=0;points=[[0,0.5],[1,0.5]];portConstraint=eastwest;fontStyle=2" vertex="1" parent="YET5aG1iahYQeoToUf5U-28">
          <mxGeometry y="34" width="160" height="146" as="geometry" />
        </mxCell>
        <mxCell id="YET5aG1iahYQeoToUf5U-31" value="ShowNotesCommands" style="swimlane;fontStyle=0;align=center;verticalAlign=top;childLayout=stackLayout;horizontal=1;startSize=26;horizontalStack=0;resizeParent=1;resizeLast=0;collapsible=1;marginBottom=0;rounded=0;shadow=0;strokeWidth=1;fillColor=#60a917;fontColor=#ffffff;strokeColor=#2D7600;" vertex="1" parent="WIyWlLk6GJQsqaUBKTNV-1">
          <mxGeometry x="420" y="740" width="240" height="210" as="geometry">
            <mxRectangle x="970" y="390" width="160" height="26" as="alternateBounds" />
          </mxGeometry>
        </mxCell>
        <mxCell id="YET5aG1iahYQeoToUf5U-32" value="" style="line;html=1;strokeWidth=1;align=left;verticalAlign=middle;spacingTop=-1;spacingLeft=3;spacingRight=3;rotatable=0;labelPosition=right;points=[];portConstraint=eastwest;" vertex="1" parent="YET5aG1iahYQeoToUf5U-31">
          <mxGeometry y="26" width="240" height="8" as="geometry" />
        </mxCell>
        <mxCell id="YET5aG1iahYQeoToUf5U-33" value="+ show_some_note(name,  notesbook)&#xa;&#xa;+ show_all_notes(notesbook: NotesBook)&#xa;&#xa;+ find_note(request, notesbook)&#xa;&#xa;+ find_tag(tag, notesbook)&#xa;&#xa;+ sort_tag(notesbook)" style="text;align=left;verticalAlign=top;spacingLeft=4;spacingRight=4;overflow=hidden;rotatable=0;points=[[0,0.5],[1,0.5]];portConstraint=eastwest;fontStyle=0" vertex="1" parent="YET5aG1iahYQeoToUf5U-31">
          <mxGeometry y="34" width="240" height="176" as="geometry" />
        </mxCell>
        <mxCell id="YET5aG1iahYQeoToUf5U-36" value="IConsoleAdressbook" style="swimlane;fontStyle=2;align=center;verticalAlign=top;childLayout=stackLayout;horizontal=1;startSize=26;horizontalStack=0;resizeParent=1;resizeLast=0;collapsible=1;marginBottom=0;rounded=0;shadow=0;strokeWidth=1;fillColor=#fff2cc;strokeColor=#d6b656;" vertex="1" parent="WIyWlLk6GJQsqaUBKTNV-1">
          <mxGeometry x="-580" y="590" width="300.25" height="70" as="geometry">
            <mxRectangle x="970" y="390" width="160" height="26" as="alternateBounds" />
          </mxGeometry>
        </mxCell>
        <mxCell id="YET5aG1iahYQeoToUf5U-37" value="" style="line;html=1;strokeWidth=1;align=left;verticalAlign=middle;spacingTop=-1;spacingLeft=3;spacingRight=3;rotatable=0;labelPosition=right;points=[];portConstraint=eastwest;" vertex="1" parent="YET5aG1iahYQeoToUf5U-36">
          <mxGeometry y="26" width="300.25" height="8" as="geometry" />
        </mxCell>
        <mxCell id="YET5aG1iahYQeoToUf5U-38" value="+ print_data()" style="text;align=left;verticalAlign=top;spacingLeft=4;spacingRight=4;overflow=hidden;rotatable=0;points=[[0,0.5],[1,0.5]];portConstraint=eastwest;fontStyle=2" vertex="1" parent="YET5aG1iahYQeoToUf5U-36">
          <mxGeometry y="34" width="300.25" height="36" as="geometry" />
        </mxCell>
        <mxCell id="YET5aG1iahYQeoToUf5U-39" value="ShowSomeContact" style="swimlane;fontStyle=0;align=center;verticalAlign=top;childLayout=stackLayout;horizontal=1;startSize=26;horizontalStack=0;resizeParent=1;resizeLast=0;collapsible=1;marginBottom=0;rounded=0;shadow=0;strokeWidth=1;fillColor=#fff2cc;strokeColor=#d6b656;gradientColor=#ffd966;" vertex="1" parent="WIyWlLk6GJQsqaUBKTNV-1">
          <mxGeometry x="-580" y="740" width="150" height="70" as="geometry">
            <mxRectangle x="970" y="390" width="160" height="26" as="alternateBounds" />
          </mxGeometry>
        </mxCell>
        <mxCell id="YET5aG1iahYQeoToUf5U-40" value="" style="line;html=1;strokeWidth=1;align=left;verticalAlign=middle;spacingTop=-1;spacingLeft=3;spacingRight=3;rotatable=0;labelPosition=right;points=[];portConstraint=eastwest;" vertex="1" parent="YET5aG1iahYQeoToUf5U-39">
          <mxGeometry y="26" width="150" height="8" as="geometry" />
        </mxCell>
        <mxCell id="YET5aG1iahYQeoToUf5U-41" value="+ print_data(adressbook, name)" style="text;align=left;verticalAlign=top;spacingLeft=4;spacingRight=4;overflow=hidden;rotatable=0;points=[[0,0.5],[1,0.5]];portConstraint=eastwest;fontStyle=0" vertex="1" parent="YET5aG1iahYQeoToUf5U-39">
          <mxGeometry y="34" width="150" height="36" as="geometry" />
        </mxCell>
        <mxCell id="YET5aG1iahYQeoToUf5U-42" value="ShowAllContacts" style="swimlane;fontStyle=0;align=center;verticalAlign=top;childLayout=stackLayout;horizontal=1;startSize=26;horizontalStack=0;resizeParent=1;resizeLast=0;collapsible=1;marginBottom=0;rounded=0;shadow=0;strokeWidth=1;fillColor=#fff2cc;strokeColor=#d6b656;gradientColor=#ffd966;" vertex="1" parent="WIyWlLk6GJQsqaUBKTNV-1">
          <mxGeometry x="-419.5" y="740" width="139.75" height="70" as="geometry">
            <mxRectangle x="970" y="390" width="160" height="26" as="alternateBounds" />
          </mxGeometry>
        </mxCell>
        <mxCell id="YET5aG1iahYQeoToUf5U-43" value="" style="line;html=1;strokeWidth=1;align=left;verticalAlign=middle;spacingTop=-1;spacingLeft=3;spacingRight=3;rotatable=0;labelPosition=right;points=[];portConstraint=eastwest;" vertex="1" parent="YET5aG1iahYQeoToUf5U-42">
          <mxGeometry y="26" width="139.75" height="8" as="geometry" />
        </mxCell>
        <mxCell id="YET5aG1iahYQeoToUf5U-44" value="+ print_data(adressbook, records_per_page)" style="text;align=left;verticalAlign=top;spacingLeft=4;spacingRight=4;overflow=hidden;rotatable=0;points=[[0,0.5],[1,0.5]];portConstraint=eastwest;fontStyle=0" vertex="1" parent="YET5aG1iahYQeoToUf5U-42">
          <mxGeometry y="34" width="139.75" height="36" as="geometry" />
        </mxCell>
        <mxCell id="YET5aG1iahYQeoToUf5U-50" value="Field" style="swimlane;fontStyle=0;align=center;verticalAlign=top;childLayout=stackLayout;horizontal=1;startSize=30;horizontalStack=0;resizeParent=1;resizeLast=0;collapsible=1;marginBottom=0;rounded=0;shadow=0;strokeWidth=1;fillColor=#fff2cc;strokeColor=#d6b656;gradientColor=#ffd966;" vertex="1" parent="WIyWlLk6GJQsqaUBKTNV-1">
          <mxGeometry x="-580" y="80" width="260" height="70" as="geometry">
            <mxRectangle x="970" y="390" width="160" height="26" as="alternateBounds" />
          </mxGeometry>
        </mxCell>
        <mxCell id="YET5aG1iahYQeoToUf5U-58" value="- value" style="text;align=left;verticalAlign=top;spacingLeft=4;spacingRight=4;overflow=hidden;rotatable=0;points=[[0,0.5],[1,0.5]];portConstraint=eastwest;fontStyle=0" vertex="1" parent="YET5aG1iahYQeoToUf5U-50">
          <mxGeometry y="30" width="260" height="20" as="geometry" />
        </mxCell>
        <mxCell id="YET5aG1iahYQeoToUf5U-51" value="" style="line;html=1;strokeWidth=1;align=left;verticalAlign=middle;spacingTop=-1;spacingLeft=3;spacingRight=3;rotatable=0;labelPosition=right;points=[];portConstraint=eastwest;" vertex="1" parent="YET5aG1iahYQeoToUf5U-50">
          <mxGeometry y="50" width="260" height="20" as="geometry" />
        </mxCell>
        <mxCell id="YET5aG1iahYQeoToUf5U-59" value="Birthday" style="swimlane;fontStyle=0;align=center;verticalAlign=top;childLayout=stackLayout;horizontal=1;startSize=30;horizontalStack=0;resizeParent=1;resizeLast=0;collapsible=1;marginBottom=0;rounded=0;shadow=0;strokeWidth=1;fillColor=#fff2cc;strokeColor=#d6b656;gradientColor=#ffd966;" vertex="1" parent="WIyWlLk6GJQsqaUBKTNV-1">
          <mxGeometry x="-500" y="210" width="180" height="70" as="geometry">
            <mxRectangle x="970" y="390" width="160" height="26" as="alternateBounds" />
          </mxGeometry>
        </mxCell>
        <mxCell id="YET5aG1iahYQeoToUf5U-60" value="- value" style="text;align=left;verticalAlign=top;spacingLeft=4;spacingRight=4;overflow=hidden;rotatable=0;points=[[0,0.5],[1,0.5]];portConstraint=eastwest;fontStyle=0" vertex="1" parent="YET5aG1iahYQeoToUf5U-59">
          <mxGeometry y="30" width="180" height="20" as="geometry" />
        </mxCell>
        <mxCell id="YET5aG1iahYQeoToUf5U-61" value="" style="line;html=1;strokeWidth=1;align=left;verticalAlign=middle;spacingTop=-1;spacingLeft=3;spacingRight=3;rotatable=0;labelPosition=right;points=[];portConstraint=eastwest;" vertex="1" parent="YET5aG1iahYQeoToUf5U-59">
          <mxGeometry y="50" width="180" height="20" as="geometry" />
        </mxCell>
        <mxCell id="YET5aG1iahYQeoToUf5U-62" value="Email" style="swimlane;fontStyle=0;align=center;verticalAlign=top;childLayout=stackLayout;horizontal=1;startSize=30;horizontalStack=0;resizeParent=1;resizeLast=0;collapsible=1;marginBottom=0;rounded=0;shadow=0;strokeWidth=1;fillColor=#fff2cc;strokeColor=#d6b656;gradientColor=#ffd966;" vertex="1" parent="WIyWlLk6GJQsqaUBKTNV-1">
          <mxGeometry x="-500" y="300" width="180" height="70" as="geometry">
            <mxRectangle x="970" y="390" width="160" height="26" as="alternateBounds" />
          </mxGeometry>
        </mxCell>
        <mxCell id="YET5aG1iahYQeoToUf5U-63" value="- value" style="text;align=left;verticalAlign=top;spacingLeft=4;spacingRight=4;overflow=hidden;rotatable=0;points=[[0,0.5],[1,0.5]];portConstraint=eastwest;fontStyle=0" vertex="1" parent="YET5aG1iahYQeoToUf5U-62">
          <mxGeometry y="30" width="180" height="20" as="geometry" />
        </mxCell>
        <mxCell id="YET5aG1iahYQeoToUf5U-64" value="" style="line;html=1;strokeWidth=1;align=left;verticalAlign=middle;spacingTop=-1;spacingLeft=3;spacingRight=3;rotatable=0;labelPosition=right;points=[];portConstraint=eastwest;" vertex="1" parent="YET5aG1iahYQeoToUf5U-62">
          <mxGeometry y="50" width="180" height="20" as="geometry" />
        </mxCell>
        <mxCell id="YET5aG1iahYQeoToUf5U-65" value="Name" style="swimlane;fontStyle=0;align=center;verticalAlign=top;childLayout=stackLayout;horizontal=1;startSize=30;horizontalStack=0;resizeParent=1;resizeLast=0;collapsible=1;marginBottom=0;rounded=0;shadow=0;strokeWidth=1;fillColor=#fff2cc;strokeColor=#d6b656;gradientColor=#ffd966;" vertex="1" parent="WIyWlLk6GJQsqaUBKTNV-1">
          <mxGeometry x="-500" y="390" width="180" height="70" as="geometry">
            <mxRectangle x="970" y="390" width="160" height="26" as="alternateBounds" />
          </mxGeometry>
        </mxCell>
        <mxCell id="YET5aG1iahYQeoToUf5U-66" value="- value" style="text;align=left;verticalAlign=top;spacingLeft=4;spacingRight=4;overflow=hidden;rotatable=0;points=[[0,0.5],[1,0.5]];portConstraint=eastwest;fontStyle=0" vertex="1" parent="YET5aG1iahYQeoToUf5U-65">
          <mxGeometry y="30" width="180" height="20" as="geometry" />
        </mxCell>
        <mxCell id="YET5aG1iahYQeoToUf5U-67" value="" style="line;html=1;strokeWidth=1;align=left;verticalAlign=middle;spacingTop=-1;spacingLeft=3;spacingRight=3;rotatable=0;labelPosition=right;points=[];portConstraint=eastwest;" vertex="1" parent="YET5aG1iahYQeoToUf5U-65">
          <mxGeometry y="50" width="180" height="20" as="geometry" />
        </mxCell>
        <mxCell id="YET5aG1iahYQeoToUf5U-68" value="Phone" style="swimlane;fontStyle=0;align=center;verticalAlign=top;childLayout=stackLayout;horizontal=1;startSize=30;horizontalStack=0;resizeParent=1;resizeLast=0;collapsible=1;marginBottom=0;rounded=0;shadow=0;strokeWidth=1;fillColor=#fff2cc;strokeColor=#d6b656;gradientColor=#ffd966;" vertex="1" parent="WIyWlLk6GJQsqaUBKTNV-1">
          <mxGeometry x="-500" y="480" width="180" height="70" as="geometry">
            <mxRectangle x="970" y="390" width="160" height="26" as="alternateBounds" />
          </mxGeometry>
        </mxCell>
        <mxCell id="YET5aG1iahYQeoToUf5U-69" value="- value" style="text;align=left;verticalAlign=top;spacingLeft=4;spacingRight=4;overflow=hidden;rotatable=0;points=[[0,0.5],[1,0.5]];portConstraint=eastwest;fontStyle=0" vertex="1" parent="YET5aG1iahYQeoToUf5U-68">
          <mxGeometry y="30" width="180" height="20" as="geometry" />
        </mxCell>
        <mxCell id="YET5aG1iahYQeoToUf5U-70" value="" style="line;html=1;strokeWidth=1;align=left;verticalAlign=middle;spacingTop=-1;spacingLeft=3;spacingRight=3;rotatable=0;labelPosition=right;points=[];portConstraint=eastwest;" vertex="1" parent="YET5aG1iahYQeoToUf5U-68">
          <mxGeometry y="50" width="180" height="20" as="geometry" />
        </mxCell>
        <mxCell id="YET5aG1iahYQeoToUf5U-71" value="Record" style="swimlane;fontStyle=0;align=center;verticalAlign=top;childLayout=stackLayout;horizontal=1;startSize=30;horizontalStack=0;resizeParent=1;resizeLast=0;collapsible=1;marginBottom=0;rounded=0;shadow=0;strokeWidth=1;fillColor=#fff2cc;strokeColor=#d6b656;gradientColor=#ffd966;" vertex="1" parent="WIyWlLk6GJQsqaUBKTNV-1">
          <mxGeometry x="-240" y="125" width="250" height="420" as="geometry">
            <mxRectangle x="970" y="390" width="160" height="26" as="alternateBounds" />
          </mxGeometry>
        </mxCell>
        <mxCell id="YET5aG1iahYQeoToUf5U-72" value="+ name&#xa;+ phones&#xa;+ birthday&#xa;+ emails" style="text;align=left;verticalAlign=top;spacingLeft=4;spacingRight=4;overflow=hidden;rotatable=0;points=[[0,0.5],[1,0.5]];portConstraint=eastwest;fontStyle=0" vertex="1" parent="YET5aG1iahYQeoToUf5U-71">
          <mxGeometry y="30" width="250" height="70" as="geometry" />
        </mxCell>
        <mxCell id="YET5aG1iahYQeoToUf5U-87" value="" style="endArrow=block;endSize=10;endFill=1;shadow=0;strokeWidth=1;rounded=0;edgeStyle=elbowEdgeStyle;elbow=vertical;entryX=0.475;entryY=-0.004;entryDx=0;entryDy=0;entryPerimeter=0;" edge="1" parent="YET5aG1iahYQeoToUf5U-71" target="YET5aG1iahYQeoToUf5U-71">
          <mxGeometry width="160" relative="1" as="geometry">
            <mxPoint x="-40" y="395" as="sourcePoint" />
            <mxPoint x="150" y="210" as="targetPoint" />
            <Array as="points">
              <mxPoint x="40" y="-45" />
            </Array>
          </mxGeometry>
        </mxCell>
        <mxCell id="YET5aG1iahYQeoToUf5U-73" value="" style="line;html=1;strokeWidth=1;align=left;verticalAlign=middle;spacingTop=-1;spacingLeft=3;spacingRight=3;rotatable=0;labelPosition=right;points=[];portConstraint=eastwest;" vertex="1" parent="YET5aG1iahYQeoToUf5U-71">
          <mxGeometry y="100" width="250" height="10" as="geometry" />
        </mxCell>
        <mxCell id="YET5aG1iahYQeoToUf5U-75" value="- __init__(name, phones, birthday, emails)&#xa;&#xa;+ add_birthday(birthday)&#xa;&#xa;+ add_email(email)&#xa;&#xa;+ add_phone(phone)&#xa;&#xa;+ change_birthday(new_birthday)&#xa;&#xa;+ change_email(old_email, new_email)&#xa;&#xa;+ change_phone(old_phone, new_phone)&#xa;&#xa;+ delete_birthday()&#xa;&#xa;+ delete_email(email_to_delete)&#xa;&#xa;+ delete_phone(phone_to_delete)" style="text;align=left;verticalAlign=top;spacingLeft=4;spacingRight=4;overflow=hidden;rotatable=0;points=[[0,0.5],[1,0.5]];portConstraint=eastwest;fontStyle=0;" vertex="1" parent="YET5aG1iahYQeoToUf5U-71">
          <mxGeometry y="110" width="250" height="280" as="geometry" />
        </mxCell>
        <mxCell id="YET5aG1iahYQeoToUf5U-76" value="AddressBook" style="swimlane;fontStyle=0;align=center;verticalAlign=top;childLayout=stackLayout;horizontal=1;startSize=30;horizontalStack=0;resizeParent=1;resizeLast=0;collapsible=1;marginBottom=0;rounded=0;shadow=0;strokeWidth=1;fillColor=#fff2cc;strokeColor=#d6b656;gradientColor=#ffd966;" vertex="1" parent="WIyWlLk6GJQsqaUBKTNV-1">
          <mxGeometry x="-240" y="590" width="250" height="420" as="geometry">
            <mxRectangle x="970" y="390" width="160" height="26" as="alternateBounds" />
          </mxGeometry>
        </mxCell>
        <mxCell id="YET5aG1iahYQeoToUf5U-77" value="- __fields&#xa;- __records_per_page" style="text;align=left;verticalAlign=top;spacingLeft=4;spacingRight=4;overflow=hidden;rotatable=0;points=[[0,0.5],[1,0.5]];portConstraint=eastwest;fontStyle=0" vertex="1" parent="YET5aG1iahYQeoToUf5U-76">
          <mxGeometry y="30" width="250" height="40" as="geometry" />
        </mxCell>
        <mxCell id="YET5aG1iahYQeoToUf5U-78" value="" style="line;html=1;strokeWidth=1;align=left;verticalAlign=middle;spacingTop=-1;spacingLeft=3;spacingRight=3;rotatable=0;labelPosition=right;points=[];portConstraint=eastwest;" vertex="1" parent="YET5aG1iahYQeoToUf5U-76">
          <mxGeometry y="70" width="250" height="10" as="geometry" />
        </mxCell>
        <mxCell id="YET5aG1iahYQeoToUf5U-79" value="- __init__()&#xa;&#xa;- __path_file()&#xa;&#xa;- __restore()&#xa;&#xa;- __save()&#xa;&#xa;+ add_contact(record)&#xa;&#xa;+ changed_contact_data(record)&#xa;&#xa;+ change_book(book_name)&#xa;&#xa;+ delete_contact(contact)&#xa;&#xa;+ find_record(search)&#xa;&#xa;+ show_near_birthdays(days)&#xa;&#xa;+ show_contacts(records_per_page)&#xa;&#xa;+ show_record_data(contact)" style="text;align=left;verticalAlign=top;spacingLeft=4;spacingRight=4;overflow=hidden;rotatable=0;points=[[0,0.5],[1,0.5]];portConstraint=eastwest;fontStyle=0;" vertex="1" parent="YET5aG1iahYQeoToUf5U-76">
          <mxGeometry y="80" width="250" height="340" as="geometry" />
        </mxCell>
        <mxCell id="YET5aG1iahYQeoToUf5U-80" value="" style="endArrow=blockThin;endSize=10;endFill=1;shadow=0;strokeWidth=1;rounded=0;edgeStyle=elbowEdgeStyle;elbow=vertical;" edge="1" parent="WIyWlLk6GJQsqaUBKTNV-1">
          <mxGeometry width="160" relative="1" as="geometry">
            <mxPoint x="-550" y="520" as="sourcePoint" />
            <mxPoint x="-550" y="150" as="targetPoint" />
            <Array as="points">
              <mxPoint x="-630" y="318" />
            </Array>
          </mxGeometry>
        </mxCell>
        <mxCell id="YET5aG1iahYQeoToUf5U-81" value="" style="endArrow=none;html=1;rounded=0;entryX=0;entryY=0.5;entryDx=0;entryDy=0;" edge="1" parent="WIyWlLk6GJQsqaUBKTNV-1" target="YET5aG1iahYQeoToUf5U-69">
          <mxGeometry width="50" height="50" relative="1" as="geometry">
            <mxPoint x="-550" y="520" as="sourcePoint" />
            <mxPoint x="-440" y="540" as="targetPoint" />
          </mxGeometry>
        </mxCell>
        <mxCell id="YET5aG1iahYQeoToUf5U-82" value="" style="endArrow=none;html=1;rounded=0;entryX=-0.001;entryY=1;entryDx=0;entryDy=0;entryPerimeter=0;" edge="1" parent="WIyWlLk6GJQsqaUBKTNV-1" target="YET5aG1iahYQeoToUf5U-66">
          <mxGeometry width="50" height="50" relative="1" as="geometry">
            <mxPoint x="-550" y="440" as="sourcePoint" />
            <mxPoint x="-510" y="440" as="targetPoint" />
          </mxGeometry>
        </mxCell>
        <mxCell id="YET5aG1iahYQeoToUf5U-83" value="" style="endArrow=none;html=1;rounded=0;entryX=0;entryY=0.5;entryDx=0;entryDy=0;" edge="1" parent="WIyWlLk6GJQsqaUBKTNV-1">
          <mxGeometry width="50" height="50" relative="1" as="geometry">
            <mxPoint x="-550" y="350" as="sourcePoint" />
            <mxPoint x="-500" y="350" as="targetPoint" />
          </mxGeometry>
        </mxCell>
        <mxCell id="YET5aG1iahYQeoToUf5U-84" value="" style="endArrow=none;html=1;rounded=0;entryX=0;entryY=0.5;entryDx=0;entryDy=0;" edge="1" parent="WIyWlLk6GJQsqaUBKTNV-1">
          <mxGeometry width="50" height="50" relative="1" as="geometry">
            <mxPoint x="-550" y="260" as="sourcePoint" />
            <mxPoint x="-500" y="260" as="targetPoint" />
          </mxGeometry>
        </mxCell>
        <mxCell id="YET5aG1iahYQeoToUf5U-88" value="" style="endArrow=diamond;endSize=10;endFill=1;shadow=0;strokeWidth=1;rounded=0;edgeStyle=elbowEdgeStyle;elbow=vertical;" edge="1" parent="WIyWlLk6GJQsqaUBKTNV-1">
          <mxGeometry width="160" relative="1" as="geometry">
            <mxPoint x="-280" y="522" as="sourcePoint" />
            <mxPoint x="-320" y="520" as="targetPoint" />
            <Array as="points">
              <mxPoint x="-160" y="520" />
            </Array>
          </mxGeometry>
        </mxCell>
        <mxCell id="YET5aG1iahYQeoToUf5U-89" value="" style="endArrow=diamond;endSize=10;endFill=1;shadow=0;strokeWidth=1;rounded=0;edgeStyle=elbowEdgeStyle;elbow=vertical;" edge="1" parent="WIyWlLk6GJQsqaUBKTNV-1">
          <mxGeometry width="160" relative="1" as="geometry">
            <mxPoint x="-280" y="438" as="sourcePoint" />
            <mxPoint x="-320" y="436" as="targetPoint" />
            <Array as="points">
              <mxPoint x="-160" y="436" />
            </Array>
          </mxGeometry>
        </mxCell>
        <mxCell id="YET5aG1iahYQeoToUf5U-90" value="" style="endArrow=diamond;endSize=10;endFill=1;shadow=0;strokeWidth=1;rounded=0;edgeStyle=elbowEdgeStyle;elbow=vertical;" edge="1" parent="WIyWlLk6GJQsqaUBKTNV-1">
          <mxGeometry width="160" relative="1" as="geometry">
            <mxPoint x="-280" y="352" as="sourcePoint" />
            <mxPoint x="-320" y="350" as="targetPoint" />
            <Array as="points">
              <mxPoint x="-160" y="350" />
            </Array>
          </mxGeometry>
        </mxCell>
        <mxCell id="YET5aG1iahYQeoToUf5U-91" value="" style="endArrow=diamond;endSize=10;endFill=1;shadow=0;strokeWidth=1;rounded=0;edgeStyle=elbowEdgeStyle;elbow=vertical;" edge="1" parent="WIyWlLk6GJQsqaUBKTNV-1">
          <mxGeometry width="160" relative="1" as="geometry">
            <mxPoint x="-280" y="262" as="sourcePoint" />
            <mxPoint x="-320" y="260" as="targetPoint" />
            <Array as="points">
              <mxPoint x="-160" y="260" />
            </Array>
          </mxGeometry>
        </mxCell>
        <mxCell id="YET5aG1iahYQeoToUf5U-92" value="" style="endArrow=block;endSize=10;endFill=0;shadow=0;strokeWidth=1;rounded=0;edgeStyle=elbowEdgeStyle;elbow=vertical;exitX=0.5;exitY=0;exitDx=0;exitDy=0;entryX=0.5;entryY=1.056;entryDx=0;entryDy=0;entryPerimeter=0;" edge="1" parent="WIyWlLk6GJQsqaUBKTNV-1" source="YET5aG1iahYQeoToUf5U-42" target="YET5aG1iahYQeoToUf5U-38">
          <mxGeometry width="160" relative="1" as="geometry">
            <mxPoint x="-550" y="1194" as="sourcePoint" />
            <mxPoint x="-390" y="660" as="targetPoint" />
            <Array as="points">
              <mxPoint x="-360" y="700" />
            </Array>
          </mxGeometry>
        </mxCell>
        <mxCell id="YET5aG1iahYQeoToUf5U-93" value="" style="endArrow=none;html=1;rounded=0;entryX=0.53;entryY=-0.014;entryDx=0;entryDy=0;entryPerimeter=0;" edge="1" parent="WIyWlLk6GJQsqaUBKTNV-1" target="YET5aG1iahYQeoToUf5U-39">
          <mxGeometry width="50" height="50" relative="1" as="geometry">
            <mxPoint x="-500" y="700" as="sourcePoint" />
            <mxPoint x="-570" y="840" as="targetPoint" />
          </mxGeometry>
        </mxCell>
        <mxCell id="YET5aG1iahYQeoToUf5U-94" value="" style="endArrow=blockThin;endSize=10;endFill=1;shadow=0;strokeWidth=1;rounded=0;edgeStyle=elbowEdgeStyle;elbow=vertical;entryX=0.5;entryY=0;entryDx=0;entryDy=0;exitX=0.5;exitY=1;exitDx=0;exitDy=0;startArrow=diamond;startFill=0;targetPerimeterSpacing=10;sourcePerimeterSpacing=6;" edge="1" parent="WIyWlLk6GJQsqaUBKTNV-1" source="YET5aG1iahYQeoToUf5U-71" target="YET5aG1iahYQeoToUf5U-76">
          <mxGeometry width="160" relative="1" as="geometry">
            <mxPoint x="80" y="500" as="sourcePoint" />
            <mxPoint x="80" y="540" as="targetPoint" />
            <Array as="points" />
          </mxGeometry>
        </mxCell>
        <mxCell id="YET5aG1iahYQeoToUf5U-95" value="" style="rounded=1;whiteSpace=wrap;html=1;dashed=1;fillColor=none;strokeColor=#FF9933;glass=0;shadow=0;sketch=0;strokeWidth=3;" vertex="1" parent="WIyWlLk6GJQsqaUBKTNV-1">
          <mxGeometry x="-600" y="20" width="640" height="1050" as="geometry" />
        </mxCell>
        <mxCell id="YET5aG1iahYQeoToUf5U-96" value="&lt;span style=&quot;font-family: Helvetica; font-size: 16px; font-style: normal; font-variant-ligatures: normal; font-variant-caps: normal; letter-spacing: normal; orphans: 2; text-indent: 0px; text-transform: none; widows: 2; word-spacing: 0px; -webkit-text-stroke-width: 0px; background-color: rgb(248, 249, 250); text-decoration-thickness: initial; text-decoration-style: initial; text-decoration-color: initial; float: none; display: inline !important;&quot;&gt;phonebook.py&lt;/span&gt;" style="text;whiteSpace=wrap;html=1;align=center;fontStyle=1;fontSize=16;fontColor=#994C00;" vertex="1" parent="WIyWlLk6GJQsqaUBKTNV-1">
          <mxGeometry x="-380" y="20" width="200" height="40" as="geometry" />
        </mxCell>
        <mxCell id="YET5aG1iahYQeoToUf5U-97" value="" style="endArrow=blockThin;endSize=10;endFill=1;shadow=0;strokeWidth=1;rounded=0;edgeStyle=elbowEdgeStyle;elbow=vertical;entryX=0.497;entryY=1;entryDx=0;entryDy=0;startArrow=diamond;startFill=0;targetPerimeterSpacing=10;sourcePerimeterSpacing=6;entryPerimeter=0;exitX=0.002;exitY=0.468;exitDx=0;exitDy=0;exitPerimeter=0;" edge="1" parent="WIyWlLk6GJQsqaUBKTNV-1" source="YET5aG1iahYQeoToUf5U-79" target="YET5aG1iahYQeoToUf5U-44">
          <mxGeometry width="160" relative="1" as="geometry">
            <mxPoint x="-280" y="850" as="sourcePoint" />
            <mxPoint x="-105" y="600" as="targetPoint" />
            <Array as="points">
              <mxPoint x="-350" y="830" />
              <mxPoint x="-270" y="800" />
            </Array>
          </mxGeometry>
        </mxCell>
        <mxCell id="YET5aG1iahYQeoToUf5U-99" value="" style="endArrow=none;html=1;rounded=0;fontSize=16;fontColor=#994C00;sourcePerimeterSpacing=6;targetPerimeterSpacing=10;" edge="1" parent="WIyWlLk6GJQsqaUBKTNV-1">
          <mxGeometry width="50" height="50" relative="1" as="geometry">
            <mxPoint x="-430" y="700" as="sourcePoint" />
            <mxPoint x="-500" y="700" as="targetPoint" />
          </mxGeometry>
        </mxCell>
        <mxCell id="YET5aG1iahYQeoToUf5U-100" value="" style="endArrow=blockThin;endSize=10;endFill=1;shadow=0;strokeWidth=1;rounded=0;edgeStyle=elbowEdgeStyle;elbow=vertical;entryX=0.537;entryY=1.083;entryDx=0;entryDy=0;startArrow=diamond;startFill=0;targetPerimeterSpacing=10;sourcePerimeterSpacing=6;entryPerimeter=0;exitX=0.002;exitY=0.468;exitDx=0;exitDy=0;exitPerimeter=0;" edge="1" parent="WIyWlLk6GJQsqaUBKTNV-1" target="YET5aG1iahYQeoToUf5U-41">
          <mxGeometry width="160" relative="1" as="geometry">
            <mxPoint x="-240" y="849.1199999999999" as="sourcePoint" />
            <mxPoint x="-350.54425000000003" y="830" as="targetPoint" />
            <Array as="points">
              <mxPoint x="-350.5" y="850" />
              <mxPoint x="-270.5" y="820" />
            </Array>
          </mxGeometry>
        </mxCell>
        <mxCell id="YET5aG1iahYQeoToUf5U-102" value="" style="endArrow=none;html=1;rounded=0;fontSize=16;fontColor=#994C00;sourcePerimeterSpacing=6;targetPerimeterSpacing=10;exitX=0.327;exitY=0.977;exitDx=0;exitDy=0;exitPerimeter=0;endFill=0;startArrow=open;startFill=0;dashed=1;" edge="1" parent="WIyWlLk6GJQsqaUBKTNV-1" source="YET5aG1iahYQeoToUf5U-41">
          <mxGeometry width="50" height="50" relative="1" as="geometry">
            <mxPoint x="-370" y="730" as="sourcePoint" />
            <mxPoint x="-531" y="920" as="targetPoint" />
          </mxGeometry>
        </mxCell>
        <mxCell id="YET5aG1iahYQeoToUf5U-103" value="" style="endArrow=open;html=1;rounded=0;fontSize=16;fontColor=#994C00;sourcePerimeterSpacing=6;targetPerimeterSpacing=10;entryX=0.353;entryY=0.977;entryDx=0;entryDy=0;entryPerimeter=0;startArrow=none;startFill=0;endFill=0;dashed=1;" edge="1" parent="WIyWlLk6GJQsqaUBKTNV-1" target="YET5aG1iahYQeoToUf5U-44">
          <mxGeometry width="50" height="50" relative="1" as="geometry">
            <mxPoint x="-370" y="920" as="sourcePoint" />
            <mxPoint x="-320" y="930" as="targetPoint" />
          </mxGeometry>
        </mxCell>
        <mxCell id="YET5aG1iahYQeoToUf5U-107" value="" style="endArrow=none;html=1;rounded=0;fontSize=16;fontColor=#994C00;sourcePerimeterSpacing=6;targetPerimeterSpacing=10;dashed=1;" edge="1" parent="WIyWlLk6GJQsqaUBKTNV-1">
          <mxGeometry width="50" height="50" relative="1" as="geometry">
            <mxPoint x="-530" y="920" as="sourcePoint" />
            <mxPoint x="-370" y="920" as="targetPoint" />
          </mxGeometry>
        </mxCell>
        <mxCell id="YET5aG1iahYQeoToUf5U-108" value="" style="endArrow=none;html=1;rounded=0;fontSize=16;fontColor=#994C00;sourcePerimeterSpacing=6;targetPerimeterSpacing=10;dashed=1;" edge="1" parent="WIyWlLk6GJQsqaUBKTNV-1">
          <mxGeometry width="50" height="50" relative="1" as="geometry">
            <mxPoint x="-460" y="1030" as="sourcePoint" />
            <mxPoint x="-460" y="920" as="targetPoint" />
          </mxGeometry>
        </mxCell>
        <mxCell id="YET5aG1iahYQeoToUf5U-109" value="" style="endArrow=none;html=1;rounded=0;fontSize=16;fontColor=#994C00;sourcePerimeterSpacing=6;targetPerimeterSpacing=10;dashed=1;" edge="1" parent="WIyWlLk6GJQsqaUBKTNV-1">
          <mxGeometry width="50" height="50" relative="1" as="geometry">
            <mxPoint x="-460" y="1030" as="sourcePoint" />
            <mxPoint x="140" y="1030" as="targetPoint" />
          </mxGeometry>
        </mxCell>
        <mxCell id="YET5aG1iahYQeoToUf5U-111" value="" style="rounded=1;whiteSpace=wrap;html=1;shadow=0;glass=0;dashed=1;sketch=0;strokeColor=#0000FF;strokeWidth=3;fontSize=16;fontColor=#994C00;fillColor=none;" vertex="1" parent="WIyWlLk6GJQsqaUBKTNV-1">
          <mxGeometry x="80" y="170" width="270" height="90" as="geometry" />
        </mxCell>
        <mxCell id="YET5aG1iahYQeoToUf5U-112" value="&lt;span style=&quot;font-family: Helvetica; font-size: 16px; font-style: normal; font-variant-ligatures: normal; font-variant-caps: normal; letter-spacing: normal; orphans: 2; text-indent: 0px; text-transform: none; widows: 2; word-spacing: 0px; -webkit-text-stroke-width: 0px; background-color: rgb(248, 249, 250); text-decoration-thickness: initial; text-decoration-style: initial; text-decoration-color: initial; float: none; display: inline !important;&quot;&gt;&lt;font color=&quot;#0000ff&quot;&gt;handler.py&lt;/font&gt;&lt;/span&gt;" style="text;whiteSpace=wrap;html=1;align=center;fontStyle=1;fontSize=16;fontColor=#994C00;" vertex="1" parent="WIyWlLk6GJQsqaUBKTNV-1">
          <mxGeometry x="110" y="195" width="200" height="40" as="geometry" />
        </mxCell>
        <mxCell id="YET5aG1iahYQeoToUf5U-114" value="" style="rounded=1;whiteSpace=wrap;html=1;shadow=0;glass=0;dashed=1;sketch=0;strokeColor=#CC0000;strokeWidth=3;fontSize=16;fontColor=#994C00;fillColor=none;" vertex="1" parent="WIyWlLk6GJQsqaUBKTNV-1">
          <mxGeometry x="75" y="25" width="270" height="90" as="geometry" />
        </mxCell>
        <mxCell id="YET5aG1iahYQeoToUf5U-115" value="&lt;span style=&quot;font-family: Helvetica; font-size: 16px; font-style: normal; font-variant-ligatures: normal; font-variant-caps: normal; letter-spacing: normal; orphans: 2; text-indent: 0px; text-transform: none; widows: 2; word-spacing: 0px; -webkit-text-stroke-width: 0px; background-color: rgb(248, 249, 250); text-decoration-thickness: initial; text-decoration-style: initial; text-decoration-color: initial; float: none; display: inline !important;&quot;&gt;&lt;font color=&quot;#cc0000&quot;&gt;main.py&lt;/font&gt;&lt;/span&gt;" style="text;whiteSpace=wrap;html=1;align=center;fontStyle=1;fontSize=16;fontColor=#994C00;" vertex="1" parent="WIyWlLk6GJQsqaUBKTNV-1">
          <mxGeometry x="105" y="50" width="200" height="40" as="geometry" />
        </mxCell>
        <mxCell id="YET5aG1iahYQeoToUf5U-117" value="" style="endArrow=open;html=1;rounded=0;strokeWidth=1;fontSize=16;fontColor=#CC0000;sourcePerimeterSpacing=6;targetPerimeterSpacing=10;entryX=0.22;entryY=1.009;entryDx=0;entryDy=0;entryPerimeter=0;endFill=0;dashed=1;" edge="1" parent="WIyWlLk6GJQsqaUBKTNV-1" target="YET5aG1iahYQeoToUf5U-111">
          <mxGeometry width="50" height="50" relative="1" as="geometry">
            <mxPoint x="140" y="1030" as="sourcePoint" />
            <mxPoint x="140" y="300" as="targetPoint" />
          </mxGeometry>
        </mxCell>
        <mxCell id="YET5aG1iahYQeoToUf5U-118" value="" style="endArrow=none;html=1;rounded=0;strokeWidth=1;fontSize=16;fontColor=#CC0000;sourcePerimeterSpacing=6;targetPerimeterSpacing=10;exitX=0.953;exitY=0.733;exitDx=0;exitDy=0;exitPerimeter=0;startArrow=open;startFill=0;dashed=1;" edge="1" parent="WIyWlLk6GJQsqaUBKTNV-1" source="YET5aG1iahYQeoToUf5U-95">
          <mxGeometry width="50" height="50" relative="1" as="geometry">
            <mxPoint x="90" y="910" as="sourcePoint" />
            <mxPoint x="110" y="790" as="targetPoint" />
          </mxGeometry>
        </mxCell>
        <mxCell id="YET5aG1iahYQeoToUf5U-119" value="" style="endArrow=open;html=1;rounded=0;strokeWidth=1;fontSize=16;fontColor=#CC0000;sourcePerimeterSpacing=6;targetPerimeterSpacing=10;entryX=0.11;entryY=1.031;entryDx=0;entryDy=0;entryPerimeter=0;endFill=0;dashed=1;" edge="1" parent="WIyWlLk6GJQsqaUBKTNV-1" target="YET5aG1iahYQeoToUf5U-111">
          <mxGeometry width="50" height="50" relative="1" as="geometry">
            <mxPoint x="110" y="790" as="sourcePoint" />
            <mxPoint x="110" y="390" as="targetPoint" />
          </mxGeometry>
        </mxCell>
        <mxCell id="YET5aG1iahYQeoToUf5U-121" value="" style="endArrow=open;startArrow=open;html=1;rounded=0;strokeWidth=1;fontSize=16;fontColor=#CC0000;sourcePerimeterSpacing=6;targetPerimeterSpacing=10;entryX=0;entryY=0.5;entryDx=0;entryDy=0;startFill=0;endFill=0;dashed=1;" edge="1" parent="WIyWlLk6GJQsqaUBKTNV-1" target="YET5aG1iahYQeoToUf5U-111">
          <mxGeometry width="50" height="50" relative="1" as="geometry">
            <mxPoint x="10" y="215" as="sourcePoint" />
            <mxPoint x="260" y="610" as="targetPoint" />
          </mxGeometry>
        </mxCell>
        <mxCell id="YET5aG1iahYQeoToUf5U-124" value="" style="endArrow=diamond;startArrow=block;html=1;rounded=0;strokeWidth=1;fontSize=16;fontColor=#CC0000;sourcePerimeterSpacing=6;targetPerimeterSpacing=10;exitX=0.5;exitY=0;exitDx=0;exitDy=0;endFill=0;startFill=1;" edge="1" parent="WIyWlLk6GJQsqaUBKTNV-1" source="YET5aG1iahYQeoToUf5U-17">
          <mxGeometry width="50" height="50" relative="1" as="geometry">
            <mxPoint x="210" y="530" as="sourcePoint" />
            <mxPoint x="540" y="390" as="targetPoint" />
          </mxGeometry>
        </mxCell>
        <mxCell id="YET5aG1iahYQeoToUf5U-125" value="" style="endArrow=diamond;startArrow=block;html=1;rounded=0;strokeWidth=1;fontSize=16;fontColor=#CC0000;sourcePerimeterSpacing=6;targetPerimeterSpacing=10;exitX=0.5;exitY=0;exitDx=0;exitDy=0;endFill=0;startFill=1;" edge="1" parent="WIyWlLk6GJQsqaUBKTNV-1">
          <mxGeometry width="50" height="50" relative="1" as="geometry">
            <mxPoint x="539.71" y="740" as="sourcePoint" />
            <mxPoint x="539.71" y="670" as="targetPoint" />
          </mxGeometry>
        </mxCell>
        <mxCell id="YET5aG1iahYQeoToUf5U-126" value="" style="endArrow=open;html=1;rounded=0;strokeWidth=1;fontSize=16;fontColor=#CC0000;sourcePerimeterSpacing=6;targetPerimeterSpacing=10;entryX=0.808;entryY=1.048;entryDx=0;entryDy=0;entryPerimeter=0;endFill=0;dashed=1;" edge="1" parent="WIyWlLk6GJQsqaUBKTNV-1" target="YET5aG1iahYQeoToUf5U-111">
          <mxGeometry width="50" height="50" relative="1" as="geometry">
            <mxPoint x="300" y="580" as="sourcePoint" />
            <mxPoint x="149.39999999999964" y="270.8100000000002" as="targetPoint" />
          </mxGeometry>
        </mxCell>
        <mxCell id="YET5aG1iahYQeoToUf5U-127" value="" style="endArrow=open;html=1;rounded=0;strokeWidth=1;fontSize=16;fontColor=#CC0000;sourcePerimeterSpacing=6;targetPerimeterSpacing=10;entryX=0.655;entryY=1.032;entryDx=0;entryDy=0;entryPerimeter=0;endFill=0;dashed=1;" edge="1" parent="WIyWlLk6GJQsqaUBKTNV-1" target="YET5aG1iahYQeoToUf5U-111">
          <mxGeometry width="50" height="50" relative="1" as="geometry">
            <mxPoint x="260" y="880" as="sourcePoint" />
            <mxPoint x="308.15999999999985" y="274.32000000000016" as="targetPoint" />
          </mxGeometry>
        </mxCell>
        <mxCell id="YET5aG1iahYQeoToUf5U-128" value="" style="endArrow=none;html=1;rounded=0;strokeWidth=1;fontSize=16;fontColor=#CC0000;sourcePerimeterSpacing=6;targetPerimeterSpacing=10;exitX=0.002;exitY=0.515;exitDx=0;exitDy=0;startArrow=open;startFill=0;dashed=1;exitPerimeter=0;" edge="1" parent="WIyWlLk6GJQsqaUBKTNV-1" source="YET5aG1iahYQeoToUf5U-20">
          <mxGeometry width="50" height="50" relative="1" as="geometry">
            <mxPoint x="19.920000000000073" y="799.6500000000003" as="sourcePoint" />
            <mxPoint x="300" y="580" as="targetPoint" />
          </mxGeometry>
        </mxCell>
        <mxCell id="YET5aG1iahYQeoToUf5U-129" value="" style="endArrow=none;html=1;rounded=0;strokeWidth=1;fontSize=16;fontColor=#CC0000;sourcePerimeterSpacing=6;targetPerimeterSpacing=10;exitX=0.002;exitY=0.603;exitDx=0;exitDy=0;startArrow=open;startFill=0;dashed=1;exitPerimeter=0;" edge="1" parent="WIyWlLk6GJQsqaUBKTNV-1" source="YET5aG1iahYQeoToUf5U-33">
          <mxGeometry width="50" height="50" relative="1" as="geometry">
            <mxPoint x="430" y="587" as="sourcePoint" />
            <mxPoint x="260" y="880" as="targetPoint" />
          </mxGeometry>
        </mxCell>
        <mxCell id="YET5aG1iahYQeoToUf5U-130" value="" style="endArrow=open;html=1;rounded=0;dashed=1;strokeWidth=2;fontSize=16;fontColor=#CC0000;sourcePerimeterSpacing=6;targetPerimeterSpacing=10;exitX=0.5;exitY=1;exitDx=0;exitDy=0;entryX=0.482;entryY=0.003;entryDx=0;entryDy=0;entryPerimeter=0;endFill=0;strokeColor=#CC0000;" edge="1" parent="WIyWlLk6GJQsqaUBKTNV-1" source="YET5aG1iahYQeoToUf5U-114" target="YET5aG1iahYQeoToUf5U-111">
          <mxGeometry width="50" height="50" relative="1" as="geometry">
            <mxPoint x="210" y="540" as="sourcePoint" />
            <mxPoint x="260" y="490" as="targetPoint" />
          </mxGeometry>
        </mxCell>
        <mxCell id="YET5aG1iahYQeoToUf5U-131" value="" style="endArrow=block;html=1;rounded=0;strokeColor=#000000;strokeWidth=1;fontSize=16;fontColor=#CC0000;sourcePerimeterSpacing=6;targetPerimeterSpacing=10;exitX=1;exitY=0.429;exitDx=0;exitDy=0;entryX=0.002;entryY=0.52;entryDx=0;entryDy=0;entryPerimeter=0;exitPerimeter=0;endFill=0;" edge="1" parent="WIyWlLk6GJQsqaUBKTNV-1" source="YET5aG1iahYQeoToUf5U-26" target="YET5aG1iahYQeoToUf5U-30">
          <mxGeometry width="50" height="50" relative="1" as="geometry">
            <mxPoint x="680" y="380" as="sourcePoint" />
            <mxPoint x="730" y="330" as="targetPoint" />
          </mxGeometry>
        </mxCell>
        <mxCell id="YET5aG1iahYQeoToUf5U-132" value="" style="endArrow=block;html=1;rounded=0;strokeColor=#000000;strokeWidth=1;fontSize=16;fontColor=#CC0000;sourcePerimeterSpacing=6;targetPerimeterSpacing=10;exitX=1;exitY=0.429;exitDx=0;exitDy=0;entryX=0.002;entryY=0.52;entryDx=0;entryDy=0;entryPerimeter=0;exitPerimeter=0;endFill=0;" edge="1" parent="WIyWlLk6GJQsqaUBKTNV-1">
          <mxGeometry width="50" height="50" relative="1" as="geometry">
            <mxPoint x="659.68" y="564.5640000000001" as="sourcePoint" />
            <mxPoint x="719.9999999999999" y="564.98" as="targetPoint" />
          </mxGeometry>
        </mxCell>
        <mxCell id="YET5aG1iahYQeoToUf5U-133" value="" style="endArrow=block;html=1;rounded=0;strokeColor=#000000;strokeWidth=1;fontSize=16;fontColor=#CC0000;sourcePerimeterSpacing=6;targetPerimeterSpacing=10;exitX=1;exitY=0.429;exitDx=0;exitDy=0;entryX=0.002;entryY=0.52;entryDx=0;entryDy=0;entryPerimeter=0;exitPerimeter=0;endFill=0;" edge="1" parent="WIyWlLk6GJQsqaUBKTNV-1">
          <mxGeometry width="50" height="50" relative="1" as="geometry">
            <mxPoint x="659.68" y="870.004" as="sourcePoint" />
            <mxPoint x="719.9999999999999" y="870.42" as="targetPoint" />
          </mxGeometry>
        </mxCell>
        <mxCell id="YET5aG1iahYQeoToUf5U-136" value="" style="rounded=1;whiteSpace=wrap;html=1;shadow=0;glass=0;dashed=1;sketch=0;strokeColor=#009900;strokeWidth=3;fontSize=16;fontColor=#CC0000;fillColor=none;" vertex="1" parent="WIyWlLk6GJQsqaUBKTNV-1">
          <mxGeometry x="380" y="30" width="540" height="980" as="geometry" />
        </mxCell>
        <mxCell id="YET5aG1iahYQeoToUf5U-137" value="&lt;font color=&quot;#009900&quot;&gt;notes.py&lt;/font&gt;" style="text;whiteSpace=wrap;html=1;align=center;fontStyle=1;fontSize=16;fontColor=#994C00;" vertex="1" parent="WIyWlLk6GJQsqaUBKTNV-1">
          <mxGeometry x="560" y="50" width="200" height="40" as="geometry" />
        </mxCell>
      </root>
    </mxGraphModel>
  </diagram>
</mxfile>
